Coordinates
nRows=267
nColumns=2
inDegrees=yes
endheader
time	ankle_angle_r	
4.35758	  0.289917	
4.39085	  0.167847	
4.42411	  0.167847	
4.45738	  0.244141	
4.49064	  0.183105	
4.5239	  0.122070	
4.55717	  0.198364	
4.59043	  0.183105	
4.6237	  0.137329	
4.65696	  0.198364	
4.69022	  0.137329	
4.72349	  0.167847	
4.75675	  0.183105	
4.79002	  0.137329	
4.82328	  0.152588	
4.85654	  0.259399	
4.88981	  0.183105	
4.92307	  0.167847	
4.95634	  0.274658	
4.9896	  0.183105	
5.02286	  0.183105	
5.05613	  0.274658	
5.08939	  0.198364	
5.12266	  0.198364	
5.15592	  0.259399	
5.18918	  0.183105	
5.22245	  0.167847	
5.25571	  0.274658	
5.28898	  0.183105	
5.32224	  0.198364	
5.3555	  0.259399	
5.38877	  0.183105	
5.42203	  0.152588	
5.4553	  0.244141	
5.48856	  0.213623	
5.52182	  0.152588	
5.55509	  0.244141	
5.58835	  0.137329	
5.62162	  0.167847	
5.65488	  0.274658	
5.68814	  0.198364	
5.72141	  0.167847	
5.75467	  0.244141	
5.78794	  0.167847	
5.8212	  0.137329	
5.85446	  0.259399	
5.88773	  0.198364	
5.92099	  0.167847	
5.95426	  0.213623	
5.98752	  0.198364	
6.02078	  0.152588	
6.05405	  0.213623	
6.08731	  0.137329	
6.12058	  0.137329	
6.15384	  0.167847	
6.1871	  0.167847	
6.22037	  0.167847	
6.25363	  0.213623	
6.2869	  0.167847	
6.32016	  0.198364	
6.35342	  0.244141	
6.38669	  0.122070	
6.41995	  0.228882	
6.45322	  0.213623	
6.48648	  0.152588	
6.51974	  0.198364	
6.55301	  0.213623	
6.58627	  0.183105	
6.61954	  0.320435	
6.6528	  0.274658	
6.68606	  0.167847	
6.71933	  0.259399	
6.75259	  0.244141	
6.78586	  0.183105	
6.81912	  0.289917	
6.85238	  0.259399	
6.88565	  0.183105	
6.91891	  0.259399	
6.95218	  0.244141	
6.98544	  0.137329	
7.0187	  0.305176	
7.05197	  0.274658	
7.08523	  0.198364	
7.1185	  0.259399	
7.15176	  0.274658	
7.18502	  0.183105	
7.21829	  0.274658	
7.25155	  0.274658	
7.28482	  0.213623	
7.31808	  0.259399	
7.35134	  0.305176	
7.38461	  0.198364	
7.41787	  0.305176	
7.45114	  0.305176	
7.4844	  0.274658	
7.51766	  0.335693	
7.55093	  0.259399	
7.58419	  0.244141	
7.61746	  0.305176	
7.65072	  0.289917	
7.68398	  0.213623	
7.71725	  0.274658	
7.75051	  0.289917	
7.78378	  0.244141	
7.81704	  0.289917	
7.8503	  0.320435	
7.88357	  0.213623	
7.91683	  0.274658	
7.9501	  0.305176	
7.98336	  0.213623	
8.01662	  0.274658	
8.04989	  0.259399	
8.08315	  0.259399	
8.11642	  0.259399	
8.14968	  0.320435	
8.18294	  0.213623	
8.21621	  0.305176	
8.24947	  0.305176	
8.28274	  0.213623	
8.316	  0.320435	
8.34926	  0.335693	
8.38253	  0.213623	
8.41579	  0.274658	
8.44906	  0.305176	
8.48232	  0.183105	
8.51558	  0.305176	
8.54885	  0.289917	
8.58211	  0.183105	
8.61538	  0.244141	
8.64864	  0.289917	
8.6819	  0.213623	
8.71517	  0.228882	
8.74843	  0.350952	
8.7817	  0.183105	
8.81496	  0.244141	
8.84822	  0.320435	
8.88149	  0.137329	
8.91475	  0.213623	
8.94802	  0.274658	
8.98128	  0.228882	
9.01454	  0.305176	
9.04781	  0.320435	
9.08107	  0.213623	
9.11434	  0.244141	
9.1476	  0.289917	
9.18086	  0.183105	
9.21413	  0.183105	
9.24739	  0.320435	
9.28066	  0.183105	
9.31392	  0.198364	
9.34718	  0.274658	
9.38045	  0.152588	
9.41371	  0.274658	
9.44698	  0.244141	
9.48024	  0.167847	
9.5135	  0.274658	
9.54677	  0.274658	
9.58003	  0.137329	
9.6133	  0.244141	
9.64656	  0.198364	
9.67982	  0.183105	
9.71309	  0.213623	
9.74635	  0.183105	
9.77962	  0.228882	
9.81288	  0.305176	
9.84614	  0.213623	
9.87941	  0.198364	
9.91267	  0.259399	
9.94594	  0.228882	
9.9792	  0.198364	
10.0125	  0.228882	
10.0457	  0.198364	
10.079	  0.198364	
10.1123	  0.274658	
10.1455	  0.198364	
10.1788	  0.167847	
10.212	  0.228882	
10.2453	  0.183105	
10.2786	  0.137329	
10.3118	  0.213623	
10.3451	  0.167847	
10.3784	  0.106812	
10.4116	  0.259399	
10.4449	  0.152588	
10.4782	  0.152588	
10.5114	  0.213623	
10.5447	  0.183105	
10.578	  0.167847	
10.6112	  0.244141	
10.6445	  0.167847	
10.6777	  0.183105	
10.711	  0.274658	
10.7443	  0.183105	
10.7775	  0.228882	
10.8108	  0.213623	
10.8441	  0.167847	
10.8773	  0.183105	
10.9106	  0.213623	
10.9439	  0.152588	
10.9771	  0.198364	
11.0104	  0.183105	
11.0436	  0.167847	
11.0769	  0.167847	
11.1102	  0.183105	
11.1434	  0.152588	
11.1767	  0.152588	
11.21	  0.152588	
11.2432	  0.152588	
11.2765	  0.122070	
11.3098	  0.198364	
11.343	  0.152588	
11.3763	  0.167847	
11.4096	  0.228882	
11.4428	  0.152588	
11.4761	  0.198364	
11.5093	  0.183105	
11.5426	  0.152588	
11.5759	  0.167847	
11.6091	  0.183105	
11.6424	  0.152588	
11.6757	  0.167847	
11.7089	  0.183105	
11.7422	  0.122070	
11.7755	  0.106812	
11.8087	  0.213623	
11.842	  0.152588	
11.8752	  0.152588	
11.9085	  0.213623	
11.9418	  0.122070	
11.975	  0.167847	
12.0083	  0.198364	
12.0416	  0.122070	
12.0748	  0.137329	
12.1081	  0.213623	
12.1414	  0.152588	
12.1746	  0.137329	
12.2079	  0.228882	
12.2412	  0.183105	
12.2744	  0.167847	
12.3077	  0.244141	
12.3409	  0.152588	
12.3742	  0.183105	
12.4075	  0.198364	
12.4407	  0.167847	
12.474	  0.137329	
12.5073	  0.213623	
12.5405	  0.122070	
12.5738	  0.122070	
12.6071	  0.198364	
12.6403	  0.152588	
12.6736	  0.152588	
12.7068	  0.198364	
12.7401	  0.167847	
12.7734	  0.137329	
12.8066	  0.259399	
12.8399	  0.152588	
12.8732	  0.106812	
12.9064	  0.183105	
12.9397	  0.167847	
12.973	  0.122070	
13.0062	  0.228882	
13.0395	  0.183105	
13.0728	  0.152588	
13.106	  0.244141	
13.1393	  0.183105	
13.1725	  0.183105	
13.2058	  0.183105	
